<?xml version="1.0" standalone="no"?>
<!DOCTYPE svg PUBLIC "-//W3C//DTD SVG 20010904//EN"
 "http://www.w3.org/TR/2001/REC-SVG-20010904/DTD/svg10.dtd">
<svg version="1.0" xmlns="http://www.w3.org/2000/svg"
 width="512.000000pt" height="512.000000pt" viewBox="0 0 512.000000 512.000000"
 preserveAspectRatio="xMidYMid meet">
<metadata>
Created by potrace 1.16, written by Peter Selinger 2001-2019
</metadata>
<g transform="translate(0.000000,512.000000) scale(0.100000,-0.100000)"
fill="#000000" stroke="none">
<path d="M2429 5101 c-58 -23 -130 -73 -157 -110 -59 -80 -141 -287 -180 -456
-42 -177 -45 -220 -51 -780 l-6 -550 -200 -108 c-110 -60 -205 -111 -211 -113
-6 -3 -14 5 -17 18 -9 36 -74 106 -120 129 -22 12 -66 24 -97 26 -110 10 -206
-43 -254 -139 -24 -48 -26 -62 -26 -183 l0 -131 -132 -71 c-126 -68 -133 -71
-141 -51 -15 42 -69 97 -119 122 -102 51 -244 26 -312 -55 -55 -65 -66 -102
-66 -239 l-1 -125 -141 -75 c-78 -41 -154 -86 -170 -98 l-28 -24 0 -293 c0
-292 0 -294 23 -320 16 -20 32 -27 57 -27 21 0 412 141 995 360 l960 360 5
-381 6 -382 37 -185 c21 -102 41 -195 43 -206 5 -20 -40 -49 -403 -267 -225
-135 -416 -254 -426 -264 -15 -17 -17 -44 -17 -230 0 -206 0 -210 23 -231 17
-16 36 -22 68 -22 24 0 244 34 489 75 302 51 446 71 449 63 9 -28 77 -89 124
-112 73 -37 181 -37 254 0 48 23 115 85 124 113 3 9 126 -8 452 -63 246 -42
466 -76 490 -76 33 0 49 6 65 23 21 22 22 31 22 232 0 184 -2 211 -17 228 -10
10 -201 129 -425 263 -364 219 -408 247 -403 267 2 12 21 105 42 207 l37 185
6 382 5 381 960 -360 c583 -219 974 -360 995 -360 25 0 41 7 57 27 23 26 23
28 23 319 0 283 -1 294 -21 312 -11 10 -86 55 -167 99 l-147 80 -5 135 c-5
144 -12 165 -67 230 -67 80 -210 105 -311 54 -51 -25 -86 -61 -114 -116 l-14
-26 -132 71 -132 72 0 131 c0 120 -2 134 -26 182 -82 165 -308 191 -428 50
-20 -23 -39 -53 -43 -66 -3 -13 -11 -21 -17 -18 -6 2 -101 53 -211 113 l-200
109 -6 545 c-5 444 -9 561 -23 639 -24 133 -52 240 -93 350 -77 205 -133 285
-243 345 -48 26 -67 30 -150 32 -75 3 -105 -1 -141 -16z m222 -189 c34 -22 54
-46 81 -98 81 -155 142 -381 158 -588 5 -67 10 -708 10 -1433 l0 -1312 -115
-598 c-63 -329 -117 -609 -120 -622 -4 -13 -19 -36 -35 -52 -54 -54 -145 -31
-169 44 -6 17 -62 301 -126 630 l-115 598 0 1317 c0 731 5 1371 10 1438 16
204 65 394 146 561 37 77 51 96 86 117 61 37 129 36 189 -2z m-611 -2230 l0
-317 -917 -344 c-505 -189 -924 -346 -930 -348 -10 -4 -13 32 -13 158 l1 164
927 502 c510 276 928 502 930 502 1 1 2 -142 2 -317z m2058 -232 l841 -455 1
-164 c0 -126 -3 -162 -12 -158 -7 2 -426 159 -930 348 l-918 344 0 318 0 318
88 -48 c49 -26 467 -253 930 -503z m-2684 508 c14 -13 27 -34 28 -47 3 -20 -9
-30 -74 -66 l-78 -44 0 65 c0 56 4 68 25 89 30 31 66 32 99 3z m2391 -3 c21
-20 25 -34 25 -85 0 -33 -3 -60 -7 -60 -5 0 -39 18 -78 39 -59 32 -70 42 -67
62 3 31 46 69 78 69 14 0 36 -11 49 -25z m-3157 -422 c11 -10 23 -28 26 -39 6
-19 -4 -27 -68 -63 -41 -23 -78 -41 -81 -41 -3 0 -5 25 -5 55 0 46 4 60 25 80
29 30 74 33 103 8z m3927 -8 c21 -20 25 -34 25 -80 0 -30 -2 -55 -4 -55 -3 0
-39 18 -81 41 -65 36 -75 44 -69 63 16 56 87 74 129 31z m-2361 -1970 c24
-126 44 -230 43 -231 -1 0 -173 -29 -382 -63 -209 -34 -388 -65 -397 -67 -16
-5 -18 4 -18 88 l0 93 353 212 c193 116 353 208 354 205 2 -4 23 -110 47 -237z
m1129 10 l317 -190 0 -91 0 -91 -397 67 -398 66 3 24 c2 14 21 116 43 228 21
112 39 208 39 213 0 6 17 0 38 -13 22 -13 181 -108 355 -213z"/>
<path d="M2486 4595 c-69 -24 -102 -69 -146 -193 -29 -82 -36 -114 -27 -117
52 -20 161 -54 162 -52 1 1 15 40 30 87 15 47 34 92 41 100 21 22 37 -1 69
-100 15 -47 29 -86 30 -87 1 -2 110 32 162 52 8 3 1 36 -24 112 -30 89 -43
115 -77 149 -60 61 -138 78 -220 49z"/>
</g>
</svg>
